<svg width="187" height="185" xmlns="http://www.w3.org/2000/svg" xmlns:xlink="http://www.w3.org/1999/xlink" overflow="hidden"><defs><clipPath id="clip0"><rect x="677" y="340" width="187" height="185"/></clipPath><clipPath id="clip1"><rect x="678" y="340" width="185" height="185"/></clipPath><clipPath id="clip2"><rect x="678" y="340" width="185" height="185"/></clipPath><clipPath id="clip3"><rect x="678" y="340" width="185" height="185"/></clipPath></defs><g clip-path="url(#clip0)" transform="translate(-677 -340)"><g clip-path="url(#clip1)"><g clip-path="url(#clip2)"><g clip-path="url(#clip3)"><path d="M704.979 465.26 712.688 465.26 712.688 472.969 704.979 472.969 704.979 465.26ZM704.979 449.844 712.688 449.844 712.688 457.552 704.979 457.552 704.979 449.844ZM704.979 434.427 712.688 434.427 712.688 442.135 704.979 442.135 704.979 434.427ZM720.396 465.26 728.104 465.26 728.104 472.969 720.396 472.969 720.396 465.26ZM720.396 449.844 728.104 449.844 728.104 457.552 720.396 457.552 720.396 449.844ZM720.396 434.427 728.104 434.427 728.104 442.135 720.396 442.135 720.396 434.427ZM693.417 492.24 712.688 492.24 712.688 480.677 720.396 480.677 720.396 492.24 739.667 492.24 739.667 422.865 693.417 422.865 693.417 492.24Z" stroke="#6667AB" stroke-width="4.82609" stroke-linecap="butt" stroke-linejoin="miter" stroke-miterlimit="4" stroke-opacity="1" fill="none" fill-rule="nonzero"/><path d="M758.938 465.26 766.646 465.26 766.646 472.969 758.938 472.969 758.938 465.26ZM758.938 449.844 766.646 449.844 766.646 457.552 758.938 457.552 758.938 449.844ZM774.354 465.26 782.062 465.26 782.062 472.969 774.354 472.969 774.354 465.26ZM774.354 449.844 782.062 449.844 782.062 457.552 774.354 457.552 774.354 449.844ZM747.375 492.24 766.646 492.24 766.646 480.677 774.354 480.677 774.354 492.24 793.625 492.24 793.625 438.281 747.375 438.281 747.375 492.24Z" stroke="#6667AB" stroke-width="4.82609" stroke-linecap="butt" stroke-linejoin="miter" stroke-miterlimit="4" stroke-opacity="1" fill="none" fill-rule="nonzero"/><path d="M836.021 397.812 828.312 397.812 828.312 390.104 836.021 390.104 836.021 397.812ZM836.021 411.302 828.312 411.302 828.312 403.594 836.021 403.594 836.021 411.302ZM836.021 426.719 828.312 426.719 828.312 419.01 836.021 419.01 836.021 426.719ZM836.021 442.135 828.312 442.135 828.312 434.427 836.021 434.427 836.021 442.135ZM836.021 457.552 828.312 457.552 828.312 449.844 836.021 449.844 836.021 457.552ZM836.021 472.969 828.312 472.969 828.312 465.26 836.021 465.26 836.021 472.969ZM820.604 397.812 812.896 397.812 812.896 390.104 820.604 390.104 820.604 397.812ZM820.604 411.302 812.896 411.302 812.896 403.594 820.604 403.594 820.604 411.302ZM820.604 426.719 812.896 426.719 812.896 419.01 820.604 419.01 820.604 426.719ZM820.604 442.135 812.896 442.135 812.896 434.427 820.604 434.427 820.604 442.135ZM820.604 457.552 812.896 457.552 812.896 449.844 820.604 449.844 820.604 457.552ZM820.604 472.969 812.896 472.969 812.896 465.26 820.604 465.26 820.604 472.969ZM801.333 376.615 801.333 492.24 820.604 492.24 820.604 480.677 828.312 480.677 828.312 492.24 847.583 492.24 847.583 382.396 801.333 376.615Z" stroke="#6667AB" stroke-width="4.82609" stroke-linecap="butt" stroke-linejoin="miter" stroke-miterlimit="4" stroke-opacity="1" fill="none" fill-rule="nonzero"/><path d="M747.375 399.74 755.083 399.74 755.083 407.448 747.375 407.448 747.375 399.74ZM747.375 384.323 755.083 384.323 755.083 392.031 747.375 392.031 747.375 384.323ZM739.667 392.031 731.958 392.031 731.958 384.323 739.667 384.323 739.667 392.031ZM739.667 407.448 731.958 407.448 731.958 399.74 739.667 399.74 739.667 407.448ZM747.375 430.573 766.646 430.573 766.646 372.76 720.396 372.76 720.396 415.156 747.375 415.156 747.375 430.573Z" stroke="#6667AB" stroke-width="4.82609" stroke-linecap="butt" stroke-linejoin="miter" stroke-miterlimit="4" stroke-opacity="1" fill="none" fill-rule="nonzero"/></g></g></g></g></svg>